<?xml version="1.0" encoding="utf-8"?>
<!-- Generator: Adobe Illustrator 24.3.0, SVG Export Plug-In . SVG Version: 6.00 Build 0)  -->
<svg version="1.1" id="图层_1" xmlns="http://www.w3.org/2000/svg" xmlns:xlink="http://www.w3.org/1999/xlink" x="0px" y="0px"
	 viewBox="0 0 1566.9 566.9" style="enable-background:new 0 0 1566.9 566.9;" xml:space="preserve">
<style type="text/css">
	.st0{opacity:0.1;fill:#44271C;enable-background:new    ;}
	.st1{fill:#44271C;}
	.st2{fill:#281611;}
	.st3{fill:#7A3818;}
	.st4{fill:#F7C17F;}
	.st5{fill:#DBA972;}
	.st6{fill:#5E2813;}
</style>
<ellipse class="st0" cx="289.7" cy="458.5" rx="218.4" ry="61.5"/>
<path class="st1" d="M373.9,191.6l-21.8-21.8l36.5-51.1c9.4-13.1,28.3-14.7,39.6-3.3l0,0c11.4,11.4,9.8,30.3-3.3,39.6L373.9,191.6z"
	/>
<path class="st2" d="M433.7,123.4c-1,7.7-5.1,14.9-12,19.8l-56,40.2l8.2,8.2l51-36.6C435.3,147.6,438.4,134.3,433.7,123.4z"/>
<path class="st3" d="M152,112.2c0.2,4.8,2.8,9.2,6.7,12l67.9,48.5c27.8,19.8,54,42.1,78.2,66.2s46.4,50.4,66.2,78.2l48.5,67.9
	c3,4.2,7.8,6.6,12.9,6.7c16.2,0.4,32.6-6.3,44.1-20.1c13.3-16,16-38.5,8.1-57.8C437,197.7,344.6,105.7,228.3,58.6l0,0
	c-20.7-8.4-44.3-3.6-60.1,12.2C156.8,82.2,151.4,97.3,152,112.2z"/>
<path class="st4" d="M400.7,385.2L358.4,326c-38.8-54.4-86.4-101.9-140.8-140.8L158.4,143c-6.4-4.6-15.1-3.8-20.6,1.7l-39.7,39.7
	c-66,66-85.2,165.7-48.4,251.6l0,0c2.8,6.5,3.1,13.8,0.8,20.5c-7.5,22.6,14,44.1,36.6,36.6l0,0c6.7-2.2,14-1.9,20.5,0.9l0,0
	c85.9,36.8,185.6,17.6,251.7-48.5l39.6-39.6C404.5,400.3,405.2,391.6,400.7,385.2z M115.4,226.7c12-12,31.5-12,43.5,0
	s12,31.5,0,43.5s-31.5,12-43.5,0S103.4,238.7,115.4,226.7z M90.7,356.9c-12-12-12-31.5,0-43.5s31.5-12,43.5,0s12,31.5,0,43.5
	S102.8,368.9,90.7,356.9z"/>
<path class="st5" d="M400.7,385.2l-42.1-59l-21.1,38.4C292.4,446.5,202,492.7,109.3,481.3c-7-0.9-14.1,0.9-19.9,4.8
	c-9.5,6.5-20.6,6.5-29.5,2c7.2,5.9,17.1,8.4,27.3,5c6.7-2.2,14-1.9,20.5,0.9c85.9,36.8,185.6,17.6,251.7-48.5l39.6-39.6
	C404.5,400.3,405.2,391.6,400.7,385.2z"/>
<path class="st6" d="M484.6,313.8c-9.6-23.5-21.1-46-34.3-67.4c1.3,19.1-5,38.3-18.5,52.2c-15.3,15.8-35.9,22.5-55.6,20.5
	c-1.5-0.1-3-0.5-4.5-0.9l47.7,66.8c3,4.2,7.8,6.6,12.9,6.7c16.2,0.4,32.6-6.3,44.1-20.1C489.8,355.6,492.5,333.1,484.6,313.8z"/>
<g>
	<path class="st1" d="M882.3,398.4c-0.2,2-0.7,6.7-1.3,14.2c-0.2,4-1.1,6.9-2.6,8.9c-1.1,0.7-3,1-5.6,1c-7.3,0-16.3-1.9-27-5.6
		c-11.7-3.5-19.6-7.7-23.7-12.5c-1.8-2-3.5-8.6-5.3-19.8c-2.4-14.7-5.2-26.9-8.2-36.6c-8.4,1.1-20.6,4.1-36.6,9.1
		c-16,4.9-26.5,9.1-31.3,12.4c-3.3,9.5-7.7,21.1-13.2,35c-0.7,3.1-1.4,6-2.1,8.7c-0.8,2.7-2.7,5-5.8,6.8c-0.7,0.4-1.6,0.7-3,0.7
		c-5.3,0-14.1-2.8-26.5-8.2c-12.4-5.5-18.9-9.1-19.3-10.9c-0.9-3.1,1.2-10.7,6.3-22.8c7-17.6,11.1-28.4,12.2-32.3
		c-4.6-4.6-6.9-9.2-6.9-13.8c0-1.1,0.1-2.3,0.3-3.6c0.4-2.6,7.1-7.4,20.1-14.2l42.5-145.4c0.7-2.6,0.8-7.5,0.3-14.5
		c-0.4-5.9,0.2-9.7,2-11.2c1.1-1.1,3.7-1.6,7.9-1.6c10.3,0,25.1,2.6,44.2,7.9c19.1,5.3,30.6,10,34.3,14.2
		c1.3,24.4,6.3,61,14.8,109.8C859.7,334,870.9,375.5,882.3,398.4z M796.3,298.1c-2.9-13.8-4.6-23-5.3-27.4
		c-2.4-14.7-4.1-30-4.9-45.8c-4.4,10.8-9.6,25.7-15.5,44.8c-6.4,20-9.8,32.5-10.2,37.6C764.5,305.6,776.5,302.5,796.3,298.1z"/>
	<path class="st1" d="M1039,349.9c0,4.2-3.6,9.8-10.9,16.8c-5.9,13-11.2,22.3-15.8,28c-10.1,13.2-22.5,21-37.3,23.4
		c-3.1,0.4-6,0.7-8.9,0.7c-12.3,0-27.5-5.9-45.5-17.8c-15.6-10.6-23.4-34.8-23.4-72.9c0-28.1,4.3-53.6,12.9-76.5
		c9.4-24.8,21-37.7,34.6-38.6c10.8-0.7,24,2.2,39.6,8.6c15.6,6.4,26.2,13.4,31.7,21.1c4.6,6.4,6.9,14.8,6.9,25.4
		c0,2.9-0.2,7-0.7,12.4c-0.4,5.4-0.6,9.2-0.3,11.4c0.4,5.9,0.7,8.7,0.7,8.2c0,7-3.4,10.4-10.2,10.2c-7.9-0.2-15.4-1.4-22.4-3.6
		c-9.5-3.3-15.2-7.8-17.1-13.5c-0.7-2,0.3-4.6,2.8-7.9c2.5-3.3,3.6-6,3.1-8.2c0.4-1.5,0.7-5.4,0.7-11.5c0-13.2-2.3-20-6.9-20.4
		c-7-0.4-13,10.2-17.8,32c-4.4,19.3-6.6,40.5-6.6,63.3c0,27,3.2,41.3,9.6,42.9c5.1,1.1,11.6-4.4,19.8-16.5
		c6.8-10.3,10.5-17.3,11-20.9c0.5-3.6,1-7.3,1.5-11c1.5-6.2,5.5-9,11.9-8.6c4,0.4,10.9,3,20.8,7.6c9.9,4.6,15.1,8.1,15.7,10.4
		C1038.7,346.5,1039,348.4,1039,349.9z"/>
	<path class="st1" d="M1176.1,225.3c12.1,5.7,21.4,17.3,28,34.6c5.9,15.8,8.9,34.5,8.9,56.1c0,29.7-5.1,55.4-15.2,77.2
		c-11.2,23.3-25.2,33.9-41.9,31.7c-6.2-1.5-15.4-3.4-27.7-5.6c-9-1.1-17.1-2.8-24.4-4.9c-12.5-3.3-22.5-14-30-32
		c-6.8-16.7-10.2-36.3-10.2-58.7c0-22.6,3.5-43.2,10.6-61.7c7.9-20.2,19-34.4,33.3-42.5c2.4-1.3,5.7-2,9.9-2
		c4.4,0,13.1,1.4,26.1,4.3C1151.8,221.6,1162.7,222.9,1176.1,225.3z M1139.2,254.9c-5.9,0-11.4,7.2-16.5,21.6
		c-5.1,14.4-7.6,28.2-7.6,41.4c0,15.8,1.9,31.4,5.6,46.8c4.2,16.7,9,25.7,14.5,27c7,1.5,13.3-6.4,18.8-23.7
		c5.3-16.7,7.9-35.2,7.9-55.4c0-11.2-1.4-22.3-4.3-33.3C1153.7,263.1,1147.6,254.9,1139.2,254.9z"/>
	<path class="st3" d="M1363.4,239.5c0.9,3.5-0.3,6.4-3.6,8.6c-2.6,1.3-5.2,2.8-7.6,4.3c-13.8,21.1-32.6,49.6-56.4,85.4
		c0,35,0.1,53,0.3,54.1c0.2,1.1,1,3.9,2.5,8.4c1.4,4.5,2.1,8.1,2.1,10.7c0,4.2-1.9,7-5.6,8.6c-2.4,1.1-5.7,1.6-9.9,1.6
		c-8.4,0-17.6-1.9-27.7-5.6c-12.8-4.4-19.1-10-19.1-16.8c0-2,0.9-5.2,2.6-9.6c1.8-4.4,2.6-8,2.6-10.9V247.7
		c-2.4-12.3-3.6-18.7-3.6-19.1c0-6.8,3.1-11.1,9.2-12.9c2.6-0.7,5.8-1,9.6-1c7.7,0,15.8,1.3,24.2,3.8c8.5,2.5,13.5,5.2,15,8.1
		c0.4,0.9,0.7,2,0.7,3.3c0,1.1-1.5,6.4-4.6,15.8v15.8c5.3-9.4,10.4-18.9,15.5-28.4c6.8-11.9,11.9-18.1,15.2-18.8
		c4.8-0.9,12.2,2,22.1,8.6S1362.3,235.1,1363.4,239.5z"/>
	<path class="st1" d="M1532.9,393.1c1.8,4.2,2.6,8.4,2.6,12.5c0,6.6-2.5,11.1-7.6,13.5c-1.5,0.7-4.3,1-8.2,1
		c-7.5,0-16.4-1.2-26.7-3.5c-10.3-2.3-16.6-4.6-18.8-6.8c-1.1-1.3-1.6-2.7-1.6-4.3c0-2.4,1.6-6.3,4.9-11.7c3.3-5.4,4.9-9.3,4.9-11.7
		c0.4-86.6-0.2-130.3-2-130.9c-3.1-1.1-10.7,8.8-22.8,29.7c-12.8,22-19.1,38.6-19.1,49.8v61.7c2.9,2.9,4.3,6.4,4.3,10.6
		c0,8.4-3.7,14.1-11.2,17.1c-0.9,0.4-2.2,0.7-4,0.7c-5.9,0-14.6-1.4-26.1-4.1c-11.4-2.8-17.8-5-19.1-6.8c-1.3-1.8-2-3.7-2-5.9
		c0-2.2,1.3-4.8,3.8-7.9c2.5-3.1,3.8-5.1,3.8-5.9V236.8c0-1.8-0.9-4.1-2.6-6.9c-1.8-2.9-2.3-5.3-1.6-7.3c1.3-4.6,4.7-7.6,10.2-8.9
		c3.5-0.9,11.8,0.3,24.7,3.6c14.1,3.5,21.8,7.1,23.1,10.9c0.9,2.4,0.5,6-1,10.9c-2.4,7.7-3.6,12.1-3.6,13.2c0,2.4,0.4,5.1,1.3,7.9
		c3.3-11,7.9-20.8,13.9-29.3c7.3-10.3,14.5-15.5,21.8-15.5c7.5,0,17.1,2.6,29,7.7c11.9,5.2,18.7,9.8,20.4,14
		C1529.8,251.2,1532.9,303.2,1532.9,393.1z"/>
</g>
</svg>
